# xmcd
#
# Track frame offsets:
# 150
# 18270
# 39035
# 58503
# 77423
# 105610
# 127518
# 148445
# 176085
# 199960
# 220335
# 240708
# 260498
# 282558
# 302285
#
# Disc length: 4339 seconds
#
#
# Revision: 0
# Processed by: cddbd v1.5.1PL2 Copyright (c) Steve Scherf et al.
# Submitted via: CDLP Version 5
#
DISCID=cc10f10f
DTITLE=高橋真梨子 - ＴＨＥ　ＢＯＸ Disc 9
DYEAR=1900
DGENRE=Misc
TTITLE0=ハッピーエンドは金庫の中
TTITLE1=多重人格
TTITLE2=家へ帰ろう
TTITLE3=日溜りのＷｅｄｄｉｎｇ　ｄａｙ
TTITLE4=夜明けの走者
TTITLE5=君の海に
TTITLE6=もうちょっと見つめて
TTITLE7=海色の風〜君住む場所へ〜
TTITLE8=Ｇｏｏｄ−ｂｙｅ　Ｌｏｖｅ
TTITLE9=軌道
TTITLE10=無伴奏
TTITLE11=恋ことば
TTITLE12=万華鏡〜ｗｉｔｈｏｕｔ　ｙｏｕ
TTITLE13=向日葵
TTITLE14=フレンズ
EXTD=
EXTT0=
EXTT1=
EXTT2=
EXTT3=
EXTT4=
EXTT5=
EXTT6=
EXTT7=
EXTT8=
EXTT9=
EXTT10=
EXTT11=
EXTT12=
EXTT13=
EXTT14=
PLAYORDER=
